<svg xmlns="http://www.w3.org/2000/svg" viewBox="0 0 200 140" role="img" aria-label="The Bakehouse Loft event barn with string lights">
  <rect x="0" y="118" width="200" height="22" fill="#6b7d5e"/>
  <path d="M40 60 L100 22 L160 60 V118 H40Z" fill="#a04a2b"/>
  <path d="M34 62 L100 18 L166 62 L158 70 L100 32 L42 70Z" fill="#4a3320"/>
  <rect x="86" y="78" width="28" height="40" fill="#4a3320"/>
  <path d="M86 78 L114 118 M114 78 L86 118" stroke="#f0dcb4" stroke-width="3"/>
  <circle cx="100" cy="52" r="9" fill="#fffdf8" stroke="#4a3320" stroke-width="2"/>
  <path d="M10 40 Q60 58 100 40 Q140 58 190 40" fill="none" stroke="#8a5a2b" stroke-width="1.5"/>
  <g fill="#f7e9a0">
    <circle cx="35" cy="47" r="2.5"/><circle cx="60" cy="51" r="2.5"/><circle cx="82" cy="48" r="2.5"/>
    <circle cx="120" cy="48" r="2.5"/><circle cx="144" cy="52" r="2.5"/><circle cx="168" cy="46" r="2.5"/>
  </g>
</svg>
