<svg xmlns="http://www.w3.org/2000/svg" viewBox="0 0 160 160" role="img" aria-label="A three-tier wedding cake with wildflower sprigs">
  <rect x="20" y="138" width="120" height="10" rx="4" fill="#8a5a2b"/>
  <rect x="35" y="108" width="90" height="30" rx="4" fill="#fffdf8" stroke="#e3cfa3" stroke-width="2"/>
  <rect x="48" y="76" width="64" height="32" rx="4" fill="#fffdf8" stroke="#e3cfa3" stroke-width="2"/>
  <rect x="60" y="48" width="40" height="28" rx="4" fill="#fffdf8" stroke="#e3cfa3" stroke-width="2"/>
  <g stroke="#6b7d5e" stroke-width="2" fill="none" stroke-linecap="round">
    <path d="M80 48 V30"/>
    <path d="M80 38 C72 36 70 28 71 24"/>
    <path d="M80 34 C88 32 90 24 89 20"/>
  </g>
  <circle cx="71" cy="23" r="4" fill="#b06a8c"/>
  <circle cx="89" cy="19" r="4" fill="#b06a8c"/>
  <circle cx="80" cy="29" r="3" fill="#f7e9a0"/>
  <g fill="#b06a8c">
    <circle cx="54" cy="92" r="3"/><circle cx="80" cy="96" r="3"/><circle cx="106" cy="92" r="3"/>
    <circle cx="44" cy="124" r="3"/><circle cx="80" cy="128" r="3"/><circle cx="116" cy="124" r="3"/>
  </g>
</svg>
